<?xml version="1.0" encoding="UTF-8"?>
<svg xmlns="http://www.w3.org/2000/svg" xmlns:xlink="http://www.w3.org/1999/xlink" contentScriptType="text/ecmascript" width="100" zoomAndPan="magnify" contentStyleType="text/css" viewBox="0 0 375 374.999991" height="100" preserveAspectRatio="xMidYMid meet" version="1.0"><defs><clipPath id="clip-0"><path d="M 112.5 112.5 L 262.5 112.5 L 262.5 262.5 L 112.5 262.5 Z M 112.5 112.5 " clip-rule="nonzero"/></clipPath></defs><rect x="-37.5" width="450" fill="rgb(100%, 100%, 100%)" y="-37.499999" height="449.999989" fill-opacity="1"/><rect x="-37.5" width="450" fill="rgb(100%, 100%, 100%)" y="-37.499999" height="449.999989" fill-opacity="1"/><g clip-path="url(#clip-0)"><path fill="rgb(10.198975%, 27.839661%, 53.729248%)" d="M 262.507812 187.5 C 262.507812 188.730469 262.476562 189.957031 262.417969 191.183594 C 262.355469 192.40625 262.265625 193.632812 262.144531 194.851562 C 262.027344 196.074219 261.875 197.292969 261.695312 198.507812 C 261.515625 199.722656 261.304688 200.929688 261.066406 202.132812 C 260.828125 203.335938 260.558594 204.535156 260.257812 205.726562 C 259.960938 206.917969 259.632812 208.097656 259.277344 209.273438 C 258.921875 210.449219 258.535156 211.613281 258.121094 212.769531 C 257.710938 213.925781 257.269531 215.070312 256.796875 216.203125 C 256.328125 217.335938 255.832031 218.460938 255.304688 219.570312 C 254.78125 220.679688 254.230469 221.773438 253.652344 222.855469 C 253.074219 223.9375 252.46875 225.007812 251.835938 226.058594 C 251.207031 227.113281 250.550781 228.148438 249.867188 229.171875 C 249.183594 230.191406 248.480469 231.195312 247.746094 232.179688 C 247.015625 233.164062 246.261719 234.132812 245.484375 235.082031 C 244.703125 236.03125 243.902344 236.960938 243.078125 237.871094 C 242.253906 238.777344 241.40625 239.667969 240.539062 240.535156 C 239.671875 241.402344 238.785156 242.25 237.875 243.074219 C 236.964844 243.898438 236.035156 244.699219 235.085938 245.476562 C 234.136719 246.257812 233.171875 247.011719 232.183594 247.742188 C 231.199219 248.472656 230.195312 249.179688 229.175781 249.863281 C 228.152344 250.542969 227.117188 251.199219 226.066406 251.832031 C 225.011719 252.464844 223.945312 253.066406 222.863281 253.644531 C 221.777344 254.226562 220.683594 254.777344 219.574219 255.300781 C 218.464844 255.828125 217.34375 256.324219 216.207031 256.792969 C 215.074219 257.261719 213.929688 257.703125 212.773438 258.117188 C 211.617188 258.53125 210.453125 258.917969 209.277344 259.273438 C 208.101562 259.628906 206.921875 259.957031 205.730469 260.253906 C 204.539062 260.554688 203.34375 260.820312 202.136719 261.0625 C 200.933594 261.300781 199.726562 261.511719 198.511719 261.691406 C 197.296875 261.871094 196.078125 262.019531 194.859375 262.140625 C 193.636719 262.261719 192.414062 262.351562 191.1875 262.414062 C 189.960938 262.472656 188.734375 262.503906 187.507812 262.503906 C 186.277344 262.503906 185.050781 262.472656 183.828125 262.414062 C 182.601562 262.351562 181.375 262.261719 180.15625 262.140625 C 178.933594 262.019531 177.714844 261.871094 176.5 261.691406 C 175.289062 261.511719 174.078125 261.300781 172.875 261.0625 C 171.671875 260.820312 170.472656 260.554688 169.28125 260.253906 C 168.09375 259.957031 166.910156 259.628906 165.734375 259.273438 C 164.558594 258.917969 163.394531 258.53125 162.238281 258.117188 C 161.082031 257.703125 159.9375 257.261719 158.804688 256.792969 C 157.671875 256.324219 156.550781 255.828125 155.441406 255.300781 C 154.328125 254.777344 153.234375 254.226562 152.152344 253.644531 C 151.070312 253.066406 150 252.464844 148.949219 251.832031 C 147.894531 251.199219 146.859375 250.542969 145.839844 249.863281 C 144.816406 249.179688 143.816406 248.472656 142.828125 247.742188 C 141.84375 247.011719 140.875 246.257812 139.925781 245.476562 C 138.976562 244.699219 138.046875 243.898438 137.140625 243.074219 C 136.230469 242.25 135.339844 241.402344 134.472656 240.535156 C 133.605469 239.667969 132.757812 238.777344 131.933594 237.871094 C 131.109375 236.960938 130.308594 236.03125 129.53125 235.082031 C 128.75 234.132812 127.996094 233.164062 127.265625 232.179688 C 126.535156 231.195312 125.828125 230.191406 125.144531 229.171875 C 124.464844 228.148438 123.808594 227.113281 123.175781 226.058594 C 122.546875 225.007812 121.941406 223.9375 121.363281 222.855469 C 120.785156 221.773438 120.230469 220.679688 119.707031 219.570312 C 119.183594 218.460938 118.683594 217.335938 118.214844 216.203125 C 117.746094 215.070312 117.304688 213.925781 116.890625 212.769531 C 116.476562 211.613281 116.089844 210.449219 115.734375 209.273438 C 115.378906 208.097656 115.050781 206.917969 114.753906 205.726562 C 114.457031 204.535156 114.1875 203.335938 113.945312 202.132812 C 113.707031 200.929688 113.496094 199.722656 113.316406 198.507812 C 113.136719 197.292969 112.988281 196.074219 112.867188 194.851562 C 112.746094 193.632812 112.65625 192.40625 112.597656 191.183594 C 112.535156 189.957031 112.507812 188.730469 112.507812 187.5 C 112.507812 186.273438 112.535156 185.046875 112.597656 183.820312 C 112.65625 182.597656 112.746094 181.371094 112.867188 180.152344 C 112.988281 178.929688 113.136719 177.710938 113.316406 176.496094 C 113.496094 175.28125 113.707031 174.074219 113.945312 172.871094 C 114.1875 171.667969 114.457031 170.46875 114.753906 169.277344 C 115.050781 168.085938 115.378906 166.90625 115.734375 165.730469 C 116.089844 164.554688 116.476562 163.390625 116.890625 162.234375 C 117.304688 161.078125 117.746094 159.933594 118.214844 158.800781 C 118.683594 157.667969 119.183594 156.542969 119.707031 155.433594 C 120.230469 154.324219 120.785156 153.230469 121.363281 152.148438 C 121.941406 151.0625 122.546875 149.996094 123.175781 148.945312 C 123.808594 147.890625 124.464844 146.855469 125.144531 145.832031 C 125.828125 144.8125 126.535156 143.808594 127.265625 142.824219 C 127.996094 141.839844 128.75 140.871094 129.53125 139.921875 C 130.308594 138.972656 131.109375 138.042969 131.933594 137.132812 C 132.757812 136.226562 133.605469 135.335938 134.472656 134.46875 C 135.339844 133.601562 136.230469 132.753906 137.140625 131.929688 C 138.046875 131.105469 138.976562 130.304688 139.925781 129.527344 C 140.875 128.746094 141.84375 127.992188 142.828125 127.261719 C 143.816406 126.53125 144.816406 125.824219 145.839844 125.140625 C 146.859375 124.460938 147.894531 123.800781 148.949219 123.171875 C 150 122.539062 151.070312 121.9375 152.152344 121.355469 C 153.234375 120.777344 154.328125 120.226562 155.441406 119.703125 C 156.550781 119.175781 157.671875 118.679688 158.804688 118.210938 C 159.9375 117.742188 161.082031 117.300781 162.238281 116.886719 C 163.394531 116.472656 164.558594 116.085938 165.734375 115.730469 C 166.910156 115.375 168.09375 115.046875 169.28125 114.75 C 170.472656 114.449219 171.671875 114.183594 172.875 113.941406 C 174.078125 113.703125 175.289062 113.492188 176.5 113.3125 C 177.714844 113.132812 178.933594 112.984375 180.15625 112.863281 C 181.375 112.742188 182.601562 112.652344 183.828125 112.589844 C 185.050781 112.53125 186.277344 112.5 187.507812 112.5 C 188.734375 112.5 189.960938 112.53125 191.1875 112.589844 C 192.414062 112.652344 193.636719 112.742188 194.859375 112.863281 C 196.078125 112.984375 197.296875 113.132812 198.511719 113.3125 C 199.726562 113.492188 200.933594 113.703125 202.136719 113.941406 C 203.34375 114.183594 204.539062 114.449219 205.730469 114.75 C 206.921875 115.046875 208.101562 115.375 209.277344 115.730469 C 210.453125 116.085938 211.617188 116.472656 212.773438 116.886719 C 213.929688 117.300781 215.074219 117.742188 216.207031 118.210938 C 217.34375 118.679688 218.464844 119.175781 219.574219 119.703125 C 220.683594 120.226562 221.777344 120.777344 222.863281 121.355469 C 223.945312 121.9375 225.011719 122.539062 226.066406 123.171875 C 227.117188 123.800781 228.152344 124.460938 229.175781 125.140625 C 230.195312 125.824219 231.199219 126.53125 232.183594 127.261719 C 233.171875 127.992188 234.136719 128.746094 235.085938 129.527344 C 236.035156 130.304688 236.964844 131.105469 237.875 131.929688 C 238.785156 132.753906 239.671875 133.601562 240.539062 134.46875 C 241.40625 135.335938 242.253906 136.226562 243.078125 137.132812 C 243.902344 138.042969 244.703125 138.972656 245.484375 139.921875 C 246.261719 140.871094 247.015625 141.839844 247.746094 142.824219 C 248.480469 143.808594 249.183594 144.8125 249.867188 145.832031 C 250.550781 146.855469 251.207031 147.890625 251.835938 148.945312 C 252.46875 149.996094 253.074219 151.0625 253.652344 152.148438 C 254.230469 153.230469 254.78125 154.324219 255.304688 155.433594 C 255.832031 156.542969 256.328125 157.667969 256.796875 158.800781 C 257.269531 159.933594 257.710938 161.078125 258.121094 162.234375 C 258.535156 163.390625 258.921875 164.554688 259.277344 165.730469 C 259.632812 166.90625 259.960938 168.085938 260.257812 169.277344 C 260.558594 170.46875 260.828125 171.667969 261.066406 172.871094 C 261.304688 174.074219 261.515625 175.28125 261.695312 176.496094 C 261.875 177.710938 262.027344 178.929688 262.144531 180.152344 C 262.265625 181.371094 262.355469 182.597656 262.417969 183.820312 C 262.476562 185.046875 262.507812 186.273438 262.507812 187.5 Z M 262.507812 187.5 " fill-opacity="1" fill-rule="nonzero"/></g><path fill="rgb(100%, 100%, 100%)" d="M 206.332031 191.359375 L 208.453125 174.917969 L 192.171875 174.917969 L 192.171875 164.417969 C 192.171875 159.660156 193.5 156.414062 200.324219 156.414062 L 209.023438 156.410156 L 209.023438 141.707031 C 207.519531 141.503906 202.355469 141.058594 196.339844 141.058594 C 183.785156 141.058594 175.195312 148.722656 175.195312 162.792969 L 175.195312 174.917969 L 160.996094 174.917969 L 160.996094 191.359375 L 175.195312 191.359375 L 175.195312 233.546875 L 192.171875 233.546875 L 192.171875 191.359375 Z M 206.332031 191.359375 " fill-opacity="1" fill-rule="nonzero"/></svg>