<?xml version="1.0" encoding="UTF-8"?>
    <svg xmlns="http://www.w3.org/2000/svg" xmlns:xlink="http://www.w3.org/1999/xlink" contentScriptType="text/ecmascript" width="60" zoomAndPan="magnify" contentStyleType="text/css" viewBox="0 0 375 374.999991" height="60" preserveAspectRatio="xMidYMid meet" version="1.0">
    <defs>
    <clipPath id="clip-0">
    <path d="M 112.5 113 L 262.5 113 L 262.5 262 L 112.5 262 Z M 112.5 113 " clip-rule="nonzero"/></clipPath></defs><rect x="-37.5" width="450" fill="rgb(100%, 100%, 100%)" y="-37.499999" height="449.999989" fill-opacity="1"/><rect x="-37.5" width="450" fill="rgb(100%, 100%, 100%)" y="-37.499999" height="449.999989" fill-opacity="1"/><g clip-path="url(#clip-0)"><path fill="rgb(0%, 0%, 0%)" d="M 187.5 113.75 C 146.082031 113.75 112.5 147.332031 112.5 188.75 C 112.5 223.894531 136.699219 253.300781 169.324219 261.4375 C 168.976562 260.425781 168.75 259.25 168.75 257.792969 L 168.75 244.976562 C 165.707031 244.976562 160.605469 244.976562 159.324219 244.976562 C 154.195312 244.976562 149.632812 242.769531 147.417969 238.667969 C 144.960938 234.113281 144.539062 227.144531 138.449219 222.882812 C 136.644531 221.460938 138.019531 219.84375 140.101562 220.0625 C 143.945312 221.148438 147.132812 223.789062 150.132812 227.699219 C 153.117188 231.617188 154.523438 232.507812 160.105469 232.507812 C 162.8125 232.507812 166.863281 232.351562 170.675781 231.75 C 172.726562 226.542969 176.269531 221.75 180.601562 219.488281 C 155.625 216.917969 143.707031 204.492188 143.707031 187.625 C 143.707031 180.363281 146.800781 173.335938 152.054688 167.417969 C 150.332031 161.542969 148.164062 149.5625 152.71875 145 C 163.957031 145 170.75 152.289062 172.382812 154.257812 C 177.980469 152.335938 184.132812 151.25 190.59375 151.25 C 197.070312 151.25 203.242188 152.335938 208.855469 154.269531 C 210.46875 152.3125 217.269531 145 228.53125 145 C 233.105469 149.570312 230.914062 161.601562 229.167969 167.460938 C 234.394531 173.367188 237.46875 180.375 237.46875 187.625 C 237.46875 204.480469 225.570312 216.898438 200.632812 219.480469 C 207.492188 223.0625 212.5 233.125 212.5 240.707031 L 212.5 257.792969 C 212.5 258.445312 212.355469 258.914062 212.28125 259.46875 C 241.507812 249.226562 262.5 221.476562 262.5 188.75 C 262.5 147.332031 228.917969 113.75 187.5 113.75 Z M 187.5 113.75 " fill-opacity="1" fill-rule="nonzero"/></g></svg>