<?xml version="1.0" encoding="UTF-8"?><svg xmlns="http://www.w3.org/2000/svg" xmlns:xlink="http://www.w3.org/1999/xlink" contentScriptType="text/ecmascript" width="375" zoomAndPan="magnify" contentStyleType="text/css" viewBox="0 0 375 374.999991" height="374.999991" preserveAspectRatio="xMidYMid meet" version="1.0"><defs><clipPath id="clip-0"><path d="M 83.945312 83.945312 L 283.445312 83.945312 L 283.445312 283.445312 L 83.945312 283.445312 Z M 83.945312 83.945312 " clip-rule="nonzero"/></clipPath></defs><rect x="-37.5" width="450" fill="rgb(100%, 100%, 100%)" y="-37.499999" height="449.999989" fill-opacity="1"/><rect x="-37.5" width="450" fill="rgb(100%, 100%, 100%)" y="-37.499999" height="449.999989" fill-opacity="1"/><rect x="-37.5" width="450" fill="rgb(100%, 100%, 100%)" y="-37.499999" height="449.999989" fill-opacity="1"/><g clip-path="url(#clip-0)"><path fill="rgb(100%, 100%, 100%)" d="M 113.871094 83.945312 L 253.523438 83.945312 C 254.5 83.945312 255.480469 83.996094 256.453125 84.089844 C 257.429688 84.1875 258.398438 84.332031 259.359375 84.523438 C 260.320312 84.710938 261.269531 84.949219 262.207031 85.234375 C 263.144531 85.519531 264.066406 85.847656 264.972656 86.222656 C 265.878906 86.597656 266.765625 87.019531 267.628906 87.480469 C 268.492188 87.941406 269.332031 88.445312 270.148438 88.988281 C 270.960938 89.535156 271.75 90.117188 272.503906 90.738281 C 273.261719 91.359375 273.988281 92.019531 274.683594 92.710938 C 275.375 93.40625 276.03125 94.128906 276.652344 94.886719 C 277.277344 95.644531 277.859375 96.429688 278.402344 97.246094 C 278.949219 98.0625 279.449219 98.902344 279.914062 99.765625 C 280.375 100.628906 280.792969 101.515625 281.167969 102.417969 C 281.542969 103.324219 281.875 104.246094 282.15625 105.183594 C 282.441406 106.121094 282.679688 107.070312 282.871094 108.035156 C 283.0625 108.996094 283.207031 109.964844 283.300781 110.9375 C 283.398438 111.914062 283.445312 112.890625 283.445312 113.871094 L 283.445312 253.523438 C 283.445312 254.5 283.398438 255.480469 283.300781 256.453125 C 283.207031 257.429688 283.0625 258.398438 282.871094 259.359375 C 282.679688 260.320312 282.441406 261.269531 282.15625 262.207031 C 281.875 263.144531 281.542969 264.066406 281.167969 264.972656 C 280.792969 265.878906 280.375 266.765625 279.914062 267.628906 C 279.449219 268.492188 278.949219 269.332031 278.402344 270.148438 C 277.859375 270.960938 277.277344 271.75 276.652344 272.503906 C 276.03125 273.261719 275.375 273.988281 274.683594 274.683594 C 273.988281 275.375 273.261719 276.03125 272.503906 276.652344 C 271.75 277.277344 270.960938 277.859375 270.148438 278.402344 C 269.332031 278.949219 268.492188 279.449219 267.628906 279.914062 C 266.765625 280.375 265.878906 280.792969 264.972656 281.167969 C 264.066406 281.542969 263.144531 281.875 262.207031 282.15625 C 261.269531 282.441406 260.320312 282.679688 259.359375 282.871094 C 258.398438 283.0625 257.429688 283.207031 256.453125 283.300781 C 255.480469 283.398438 254.5 283.445312 253.523438 283.445312 L 113.871094 283.445312 C 112.890625 283.445312 111.914062 283.398438 110.9375 283.300781 C 109.964844 283.207031 108.996094 283.0625 108.035156 282.871094 C 107.070312 282.679688 106.121094 282.441406 105.183594 282.15625 C 104.246094 281.875 103.324219 281.542969 102.417969 281.167969 C 101.515625 280.792969 100.628906 280.375 99.765625 279.914062 C 98.902344 279.449219 98.0625 278.949219 97.246094 278.402344 C 96.429688 277.859375 95.644531 277.277344 94.886719 276.652344 C 94.128906 276.03125 93.40625 275.375 92.710938 274.683594 C 92.019531 273.988281 91.359375 273.261719 90.738281 272.503906 C 90.117188 271.75 89.535156 270.960938 88.988281 270.148438 C 88.445312 269.332031 87.941406 268.492188 87.480469 267.628906 C 87.019531 266.765625 86.597656 265.878906 86.222656 264.972656 C 85.847656 264.066406 85.519531 263.144531 85.234375 262.207031 C 84.949219 261.269531 84.710938 260.320312 84.523438 259.359375 C 84.332031 258.398438 84.1875 257.429688 84.089844 256.453125 C 83.996094 255.480469 83.945312 254.5 83.945312 253.523438 L 83.945312 113.871094 C 83.945312 112.890625 83.996094 111.914062 84.089844 110.9375 C 84.1875 109.964844 84.332031 108.996094 84.523438 108.035156 C 84.710938 107.070312 84.949219 106.121094 85.234375 105.183594 C 85.519531 104.246094 85.847656 103.324219 86.222656 102.417969 C 86.597656 101.515625 87.019531 100.628906 87.480469 99.765625 C 87.941406 98.902344 88.445312 98.0625 88.988281 97.246094 C 89.535156 96.429688 90.117188 95.644531 90.738281 94.886719 C 91.359375 94.128906 92.019531 93.40625 92.710938 92.710938 C 93.40625 92.019531 94.128906 91.359375 94.886719 90.738281 C 95.644531 90.117188 96.429688 89.535156 97.246094 88.988281 C 98.0625 88.445312 98.902344 87.941406 99.765625 87.480469 C 100.628906 87.019531 101.515625 86.597656 102.417969 86.222656 C 103.324219 85.847656 104.246094 85.519531 105.183594 85.234375 C 106.121094 84.949219 107.070312 84.710938 108.035156 84.523438 C 108.996094 84.332031 109.964844 84.1875 110.9375 84.089844 C 111.914062 83.996094 112.890625 83.945312 113.871094 83.945312 Z M 113.871094 83.945312 " fill-opacity="1" fill-rule="nonzero"/></g><path fill="rgb(25.878906%, 52.159119%, 95.689392%)" d="M 234.351562 239.804688 C 251.886719 223.441406 259.679688 196.164062 255.003906 170.058594 L 185.253906 170.058594 L 185.253906 198.894531 L 225 198.894531 C 223.441406 208.246094 217.984375 216.039062 210.191406 221.101562 Z M 234.351562 239.804688 " fill-opacity="1" fill-rule="nonzero"/><path fill="rgb(20.388794%, 65.879822%, 32.548523%)" d="M 119.015625 216.816406 C 119.652344 218.074219 120.328125 219.3125 121.035156 220.53125 C 121.742188 221.75 122.484375 222.949219 123.261719 224.125 C 124.035156 225.300781 124.84375 226.457031 125.6875 227.589844 C 126.527344 228.71875 127.398438 229.824219 128.304688 230.90625 C 129.207031 231.988281 130.140625 233.046875 131.105469 234.074219 C 132.066406 235.105469 133.058594 236.105469 134.078125 237.078125 C 135.097656 238.050781 136.144531 238.996094 137.21875 239.910156 C 138.292969 240.824219 139.390625 241.707031 140.515625 242.558594 C 141.636719 243.410156 142.785156 244.230469 143.953125 245.019531 C 145.121094 245.804688 146.3125 246.558594 147.527344 247.277344 C 148.738281 247.996094 149.96875 248.683594 151.222656 249.332031 C 152.472656 249.984375 153.738281 250.597656 155.027344 251.175781 C 156.3125 251.753906 157.613281 252.296875 158.929688 252.800781 C 160.246094 253.304688 161.574219 253.773438 162.917969 254.203125 C 164.261719 254.632812 165.613281 255.023438 166.980469 255.378906 C 168.34375 255.730469 169.71875 256.046875 171.101562 256.320312 C 172.480469 256.597656 173.871094 256.832031 175.269531 257.03125 C 176.664062 257.226562 178.0625 257.386719 179.46875 257.503906 C 180.875 257.621094 182.28125 257.699219 183.691406 257.738281 C 185.097656 257.773438 186.507812 257.773438 187.917969 257.734375 C 189.328125 257.691406 190.734375 257.609375 192.140625 257.488281 C 193.542969 257.367188 194.945312 257.207031 196.339844 257.007812 C 197.734375 256.808594 199.125 256.570312 200.503906 256.289062 C 201.886719 256.011719 203.261719 255.695312 204.625 255.335938 C 205.988281 254.980469 207.339844 254.585938 208.683594 254.15625 C 210.023438 253.722656 211.355469 253.25 212.667969 252.742188 C 213.984375 252.234375 215.285156 251.691406 216.570312 251.109375 C 217.851562 250.527344 219.121094 249.910156 220.371094 249.257812 C 221.617188 248.605469 222.847656 247.917969 224.058594 247.195312 C 225.269531 246.472656 226.460938 245.71875 227.628906 244.929688 C 228.796875 244.136719 229.941406 243.316406 231.0625 242.460938 C 232.183594 241.609375 233.28125 240.722656 234.351562 239.804688 L 210.191406 221.101562 C 189.542969 234.742188 155.253906 229.675781 143.5625 197.722656 Z M 119.015625 216.816406 " fill-opacity="1" fill-rule="nonzero"/><path fill="rgb(98.429871%, 73.728943%, 0.779724%)" d="M 143.5625 197.722656 C 140.445312 187.984375 140.445312 179.019531 143.5625 169.28125 L 119.015625 150.1875 C 110.054688 168.109375 107.324219 193.4375 119.015625 216.816406 Z M 143.5625 197.722656 " fill-opacity="1" fill-rule="nonzero"/><path fill="rgb(91.758728%, 26.269531%, 20.779419%)" d="M 143.5625 169.28125 C 152.136719 142.394531 188.761719 126.808594 213.308594 149.796875 L 234.742188 128.757812 C 204.347656 99.53125 145.121094 100.703125 119.015625 150.1875 Z M 143.5625 169.28125 " fill-opacity="1" fill-rule="nonzero"/></svg>