<?xml version="1.0" encoding="UTF-8"?><svg xmlns="http://www.w3.org/2000/svg" xmlns:xlink="http://www.w3.org/1999/xlink" contentScriptType="text/ecmascript" width="35" zoomAndPan="magnify" contentStyleType="text/css" viewBox="0 0 375 374.999991" height="35" preserveAspectRatio="xMidYMid meet" version="1.0"><defs><clipPath id="clip-0"><path d="M 19 6.40625 L 356.25 6.40625 L 356.25 374.65625 L 19 374.65625 Z M 19 6.40625 " clip-rule="nonzero"/></clipPath></defs><g clip-path="url(#clip-0)"><path fill="rgb(19.999695%, 17.248535%, 32.939148%)" d="M 126.789062 6.421875 C 125.789062 6.421875 124.789062 6.472656 123.792969 6.570312 C 122.796875 6.667969 121.808594 6.816406 120.824219 7.011719 C 119.84375 7.207031 118.871094 7.449219 117.914062 7.738281 C 116.957031 8.03125 116.015625 8.367188 115.089844 8.75 C 114.164062 9.132812 113.261719 9.558594 112.375 10.03125 C 111.492188 10.503906 110.636719 11.015625 109.804688 11.570312 C 108.96875 12.128906 108.167969 12.722656 107.394531 13.359375 C 106.617188 13.992188 105.878906 14.664062 105.171875 15.371094 C 104.460938 16.078125 103.789062 16.820312 103.15625 17.59375 C 102.519531 18.363281 101.925781 19.167969 101.367188 20 C 100.8125 20.832031 100.296875 21.6875 99.824219 22.570312 C 99.351562 23.453125 98.925781 24.355469 98.542969 25.28125 C 98.160156 26.207031 97.820312 27.144531 97.53125 28.101562 C 97.242188 29.0625 96.996094 30.03125 96.800781 31.011719 C 96.605469 31.992188 96.460938 32.980469 96.363281 33.976562 C 96.265625 34.972656 96.214844 35.96875 96.214844 36.96875 L 96.214844 139.496094 C 104.214844 125.816406 115.410156 113.898438 125.890625 102.742188 C 140.785156 86.820312 155.035156 71.683594 157.363281 54.726562 L 157.363281 36.96875 C 157.367188 35.96875 157.316406 34.972656 157.21875 33.976562 C 157.121094 32.980469 156.976562 31.992188 156.78125 31.011719 C 156.585938 30.03125 156.34375 29.0625 156.050781 28.105469 C 155.761719 27.148438 155.425781 26.207031 155.042969 25.28125 C 154.660156 24.359375 154.230469 23.453125 153.757812 22.570312 C 153.285156 21.691406 152.773438 20.832031 152.214844 20 C 151.660156 19.167969 151.066406 18.367188 150.429688 17.59375 C 149.792969 16.820312 149.121094 16.078125 148.414062 15.371094 C 147.707031 14.664062 146.964844 13.992188 146.191406 13.359375 C 145.417969 12.722656 144.613281 12.128906 143.78125 11.570312 C 142.949219 11.015625 142.089844 10.503906 141.207031 10.03125 C 140.324219 9.558594 139.417969 9.132812 138.492188 8.75 C 137.566406 8.367188 136.625 8.03125 135.667969 7.738281 C 134.710938 7.449219 133.738281 7.207031 132.757812 7.011719 C 131.773438 6.816406 130.785156 6.667969 129.789062 6.570312 C 128.789062 6.472656 127.792969 6.421875 126.789062 6.421875 Z M 226.234375 314.105469 C 225.109375 314.105469 223.984375 314.078125 222.855469 314.019531 C 221.730469 313.964844 220.609375 313.878906 219.488281 313.769531 C 218.367188 313.65625 217.246094 313.519531 216.132812 313.351562 C 215.019531 313.1875 213.910156 312.992188 212.804688 312.773438 C 211.699219 312.554688 210.601562 312.304688 209.507812 312.03125 C 208.414062 311.757812 207.328125 311.457031 206.25 311.128906 C 205.171875 310.800781 204.101562 310.449219 203.042969 310.066406 C 201.980469 309.6875 200.929688 309.28125 199.890625 308.851562 C 198.847656 308.421875 197.820312 307.964844 196.800781 307.480469 C 195.78125 307 194.777344 306.492188 193.78125 305.964844 C 192.789062 305.433594 191.808594 304.878906 190.84375 304.296875 C 189.875 303.71875 188.925781 303.117188 187.988281 302.492188 C 187.050781 301.867188 186.128906 301.21875 185.222656 300.546875 C 184.320312 299.875 183.429688 299.183594 182.558594 298.46875 C 181.6875 297.753906 180.835938 297.019531 180 296.265625 C 179.164062 295.507812 178.351562 294.734375 177.554688 293.9375 C 176.757812 293.140625 175.980469 292.324219 175.222656 291.492188 C 174.464844 290.65625 173.730469 289.804688 173.015625 288.9375 C 172.300781 288.066406 171.605469 287.179688 170.933594 286.273438 C 170.261719 285.371094 169.613281 284.449219 168.988281 283.515625 C 168.359375 282.578125 167.757812 281.628906 167.175781 280.664062 C 166.597656 279.699219 166.042969 278.71875 165.507812 277.726562 C 164.976562 276.734375 164.46875 275.730469 163.988281 274.710938 C 163.503906 273.695312 163.046875 272.667969 162.617188 271.625 C 162.183594 270.585938 161.777344 269.535156 161.398438 268.476562 C 161.015625 267.417969 160.664062 266.347656 160.335938 265.273438 C 160.007812 264.195312 159.703125 263.109375 159.429688 262.019531 C 159.15625 260.925781 158.90625 259.828125 158.6875 258.726562 C 158.464844 257.621094 158.269531 256.511719 158.105469 255.398438 C 157.9375 254.285156 157.796875 253.167969 157.6875 252.046875 C 157.574219 250.929688 157.488281 249.804688 157.433594 248.683594 C 157.375 247.558594 157.347656 246.433594 157.347656 245.304688 L 157.347656 228.484375 C 147.429688 234.675781 128.960938 260.292969 97.433594 265.363281 C 104.808594 319.269531 150.34375 366.582031 209.558594 374.171875 C 241.8125 366.710938 260.074219 344.972656 269.976562 327.046875 C 273.855469 319.894531 277.0625 312.449219 279.597656 304.71875 C 282.132812 296.988281 283.957031 289.089844 285.066406 281.03125 C 283.539062 283.542969 281.855469 285.949219 280.015625 288.246094 C 278.179688 290.542969 276.203125 292.714844 274.085938 294.757812 C 271.96875 296.800781 269.730469 298.703125 267.371094 300.460938 C 265.011719 302.21875 262.546875 303.816406 259.984375 305.257812 C 257.417969 306.703125 254.769531 307.972656 252.042969 309.078125 C 249.3125 310.179688 246.527344 311.105469 243.679688 311.851562 C 240.832031 312.597656 237.949219 313.160156 235.03125 313.539062 C 232.109375 313.914062 229.179688 314.105469 226.234375 314.105469 Z M 226.234375 115.40625 C 198.148438 115.40625 175.90625 123.441406 157.363281 134.570312 L 157.363281 82.269531 C 150.980469 91.808594 142.46875 100.839844 133.757812 110.09375 C 116.464844 128.507812 98.648438 147.460938 96.195312 172.054688 L 96.195312 185.222656 C 80.605469 198.351562 67.050781 206.089844 48.386719 206.652344 C 47.394531 206.695312 46.40625 206.785156 45.421875 206.921875 C 44.4375 207.0625 43.464844 207.246094 42.496094 207.480469 C 41.53125 207.714844 40.578125 207.996094 39.640625 208.320312 C 38.703125 208.648438 37.78125 209.019531 36.878906 209.433594 C 35.980469 209.847656 35.097656 210.308594 34.242188 210.808594 C 33.382812 211.308594 32.554688 211.851562 31.75 212.433594 C 30.945312 213.015625 30.167969 213.636719 29.425781 214.292969 C 28.679688 214.953125 27.972656 215.644531 27.292969 216.371094 C 26.617188 217.097656 25.976562 217.855469 25.375 218.644531 C 24.773438 219.433594 24.210938 220.25 23.6875 221.09375 C 23.164062 221.9375 22.683594 222.808594 22.246094 223.699219 C 21.808594 224.589844 21.414062 225.5 21.0625 226.425781 C 20.714844 227.355469 20.410156 228.300781 20.152344 229.257812 C 19.894531 230.21875 19.683594 231.1875 19.523438 232.164062 C 19.359375 233.144531 19.246094 234.128906 19.175781 235.121094 C 19.109375 236.109375 19.09375 237.101562 19.121094 238.09375 C 19.152344 239.085938 19.230469 240.074219 19.355469 241.058594 C 19.480469 242.042969 19.65625 243.019531 19.878906 243.988281 C 20.097656 244.953125 20.367188 245.910156 20.679688 246.851562 C 20.996094 247.792969 21.355469 248.714844 21.757812 249.621094 C 22.164062 250.527344 22.613281 251.414062 23.101562 252.277344 C 23.59375 253.140625 24.125 253.976562 24.699219 254.789062 C 25.269531 255.597656 25.882812 256.378906 26.53125 257.132812 C 27.179688 257.882812 27.863281 258.601562 28.582031 259.289062 C 29.300781 259.972656 30.050781 260.621094 30.835938 261.234375 C 31.617188 261.84375 32.425781 262.417969 33.265625 262.949219 C 34.101562 263.484375 34.964844 263.976562 35.851562 264.425781 C 36.734375 264.871094 37.640625 265.277344 38.566406 265.640625 C 39.492188 266 40.433594 266.316406 41.390625 266.585938 C 42.347656 266.855469 43.3125 267.078125 44.292969 267.25 C 45.269531 267.425781 46.253906 267.554688 47.242188 267.632812 C 48.234375 267.710938 49.226562 267.742188 50.21875 267.726562 C 62.949219 267.390625 75.320312 265.109375 87.335938 260.886719 C 87.335938 260.886719 87.621094 260.777344 88.125 260.601562 C 88.285156 260.554688 88.441406 260.5 88.59375 260.433594 C 89 260.292969 89.40625 260.144531 89.804688 259.976562 C 90.199219 259.808594 90.449219 259.75 90.761719 259.621094 C 91.28125 259.425781 91.792969 259.226562 92.308594 258.972656 L 93.097656 258.660156 C 93.460938 258.519531 93.820312 258.378906 94.179688 258.222656 C 95.042969 257.859375 95.898438 257.492188 96.734375 257.117188 C 120.992188 246.5625 156.964844 212.230469 165.875 204.515625 L 166.28125 204.167969 C 185.898438 186.75 201.832031 176.449219 226.214844 176.449219 C 228.257812 176.449219 230.292969 176.542969 232.324219 176.726562 C 234.355469 176.910156 236.375 177.179688 238.382812 177.542969 C 240.390625 177.90625 242.378906 178.355469 244.347656 178.894531 C 246.316406 179.433594 248.253906 180.054688 250.167969 180.765625 C 252.078125 181.476562 253.957031 182.269531 255.796875 183.148438 C 257.640625 184.023438 259.441406 184.980469 261.195312 186.015625 C 262.953125 187.050781 264.660156 188.164062 266.320312 189.351562 C 267.976562 190.539062 269.578125 191.796875 271.125 193.128906 C 272.671875 194.457031 274.15625 195.851562 275.578125 197.3125 C 277 198.777344 278.355469 200.296875 279.644531 201.878906 C 280.929688 203.460938 282.144531 205.09375 283.285156 206.785156 C 284.429688 208.472656 285.492188 210.210938 286.480469 211.992188 C 287.46875 213.777344 288.375 215.601562 289.203125 217.464844 C 290.027344 219.328125 290.769531 221.222656 291.425781 223.152344 C 292.082031 225.082031 292.652344 227.039062 293.136719 229.019531 C 293.621094 231 294.015625 232.996094 294.324219 235.011719 C 294.324219 235.050781 294.324219 235.089844 294.324219 235.121094 C 300.351562 261.652344 296.996094 300.28125 279.425781 332.179688 C 271.441406 346.652344 258.527344 363.355469 238.273438 374.597656 C 304.335938 368.503906 356.230469 312.820312 356.230469 245.269531 C 356.25 173.679688 297.929688 115.40625 226.234375 115.40625 Z M 226.234375 115.40625 " fill-opacity="1" fill-rule="nonzero"/></g></svg>